<?xml version="1.0" encoding="UTF-8" standalone="no"?>
<svg
   xmlns:dc="http://purl.org/dc/elements/1.1/"
   xmlns:cc="http://creativecommons.org/ns#"
   xmlns:rdf="http://www.w3.org/1999/02/22-rdf-syntax-ns#"
   xmlns:svg="http://www.w3.org/2000/svg"
   xmlns="http://www.w3.org/2000/svg"
   xmlns:sodipodi="http://sodipodi.sourceforge.net/DTD/sodipodi-0.dtd"
   xmlns:inkscape="http://www.inkscape.org/namespaces/inkscape"
   inkscape:version="1.0 (4035a4fb49, 2020-05-01)"
   sodipodi:docname="delete.svg"
   id="svg4"
   version="1.1"
   viewBox="0 0 18 17.999999"
   width="18"
   height="18">
  <metadata
     id="metadata10">
    <rdf:RDF>
      <cc:Work
         rdf:about="">
        <dc:format>image/svg+xml</dc:format>
        <dc:type
           rdf:resource="http://purl.org/dc/dcmitype/StillImage" />
        <dc:title />
      </cc:Work>
    </rdf:RDF>
  </metadata>
  <defs
     id="defs8" />
  <sodipodi:namedview
     showguides="false"
     inkscape:current-layer="g836"
     inkscape:window-maximized="1"
     inkscape:window-y="-8"
     inkscape:window-x="-8"
     inkscape:cy="11.701378"
     inkscape:cx="3.0386715"
     inkscape:zoom="21.25"
     showgrid="false"
     id="namedview6"
     inkscape:window-height="1017"
     inkscape:window-width="1920"
     inkscape:pageshadow="2"
     inkscape:pageopacity="0"
     guidetolerance="10"
     gridtolerance="10"
     objecttolerance="10"
     borderopacity="1"
     bordercolor="#666666"
     pagecolor="#ffffff"
     inkscape:document-rotation="0"
     fit-margin-top="0"
     fit-margin-left="0"
     fit-margin-right="0"
     fit-margin-bottom="0" />
  <g
     id="g836"
     transform="translate(-0.82274567,0.96173847)">
    <path
       style="fill:#262626;fill-opacity:1;stroke:#ffffff;stroke-width:0;stroke-miterlimit:4;stroke-dasharray:none;stroke-opacity:1"
       d="M 1.9593512,17.00528 C 1.520443,16.905013 1.1070124,16.600869 0.92993895,16.247984 0.77941309,15.948003 0.7885505,15.447199 0.95021677,15.136734 1.0416702,14.961107 1.9145684,14.038975 4.4615775,11.427325 6.3258864,9.5157035 7.8508557,7.9380187 7.8503976,7.9213592 7.8499316,7.9046979 6.4016451,6.390651 4.6319647,4.5568044 2.4516411,2.2974254 1.3650594,1.1397868 1.2614233,0.96584456 1.1224652,0.73261784 1.1085434,0.6761301 1.1091383,0.34793032 1.1096966,0.03988305 1.1280573,-0.0449659 1.2338356,-0.22846967 1.6618701,-0.97098968 2.6741299,-1.1912973 3.3801024,-0.69558051 c 0.110824,0.077816 1.5978782,1.60554151 3.3045626,3.39494071 1.7066853,1.7893983 3.1152897,3.2545008 3.1302338,3.255784 0.014943,0.00126 1.4029142,-1.4367069 3.0843792,-3.1955333 1.681464,-1.7588264 3.143414,-3.26875092 3.248775,-3.35538792 0.284917,-0.23428237 0.548651,-0.34116941 0.895711,-0.36301875 0.709881,-0.0446919 1.355564,0.42452291 1.490698,1.08327763 0.04946,0.24110132 -0.01352,0.63959831 -0.135483,0.85732776 -0.04811,0.0858803 -1.559457,1.68228098 -3.35855,3.54754748 l -3.271077,3.3913944 0.14913,0.1551461 c 0.08202,0.085329 1.599485,1.643408 3.372142,3.4623954 1.772657,1.818988 3.270485,3.377549 3.328506,3.46347 0.145483,0.215436 0.206206,0.44205 0.203531,0.759551 -0.0029,0.338343 -0.115428,0.579047 -0.400741,0.856836 -0.281928,0.274495 -0.604482,0.405343 -1.004855,0.407636 -0.331686,0.0019 -0.52399,-0.05437 -0.831243,-0.243252 C 16.466928,16.70945 15.04719,15.267648 13.117661,13.260486 11.320887,11.391416 9.8324954,9.8680807 9.8101244,9.8752943 9.7877544,9.8825187 8.3909081,11.33223 6.7060246,13.096899 5.0211412,14.861569 3.5238845,16.416157 3.3787876,16.55154 2.9518002,16.949943 2.4371947,17.114443 1.9593512,17.00528 Z"
       id="path862" />
  </g>
</svg>
