<?xml version="1.0" encoding="UTF-8" standalone="no"?>
<svg
   xmlns:dc="http://purl.org/dc/elements/1.1/"
   xmlns:cc="http://creativecommons.org/ns#"
   xmlns:rdf="http://www.w3.org/1999/02/22-rdf-syntax-ns#"
   xmlns:svg="http://www.w3.org/2000/svg"
   xmlns="http://www.w3.org/2000/svg"
   xmlns:sodipodi="http://sodipodi.sourceforge.net/DTD/sodipodi-0.dtd"
   xmlns:inkscape="http://www.inkscape.org/namespaces/inkscape"
   inkscape:version="1.0 (4035a4fb49, 2020-05-01)"
   sodipodi:docname="letme-title.svg"
   id="svg31"
   version="1.1"
   height="350"
   width="1372.6418"
   viewBox="0 0 171.58023 43.75">
  <metadata
     id="metadata37">
    <rdf:RDF>
      <cc:Work
         rdf:about="">
        <dc:format>image/svg+xml</dc:format>
        <dc:type
           rdf:resource="http://purl.org/dc/dcmitype/StillImage" />
        <dc:title></dc:title>
      </cc:Work>
    </rdf:RDF>
  </metadata>
  <defs
     id="defs35">
    <pattern
       y="0"
       x="0"
       height="6"
       width="6"
       patternUnits="userSpaceOnUse"
       id="EMFhbasepattern" />
  </defs>
  <sodipodi:namedview
     inkscape:current-layer="svg31"
     inkscape:window-maximized="1"
     inkscape:window-y="-8"
     inkscape:window-x="-8"
     inkscape:cy="295.39291"
     inkscape:cx="518.12663"
     inkscape:zoom="0.5"
     showgrid="false"
     id="namedview33"
     inkscape:window-height="1017"
     inkscape:window-width="1920"
     inkscape:pageshadow="2"
     inkscape:pageopacity="0"
     guidetolerance="10"
     gridtolerance="10"
     objecttolerance="10"
     borderopacity="1"
     bordercolor="#666666"
     pagecolor="#ffffff"
     inkscape:document-rotation="0"
     lock-margins="false"
     fit-margin-top="0"
     fit-margin-left="0"
     fit-margin-right="15"
     fit-margin-bottom="0"
     showguides="false"
     inkscape:snap-intersection-paths="true"
     inkscape:snap-smooth-nodes="true"
     inkscape:snap-midpoints="true"
     inkscape:object-paths="false" />
  <text
     id="text839"
     y="43.277866"
     x="55.271782"
     style="font-size:41.25px;line-height:1.25;font-family:Nunito;-inkscape-font-specification:Nunito;letter-spacing:0px;word-spacing:0px;stroke-width:0;stroke-miterlimit:4;stroke-dasharray:none"
     xml:space="preserve"><tspan
       dx="0"
       dy="0"
       style="font-style:normal;font-variant:normal;font-weight:300;font-stretch:normal;font-size:41.25px;font-family:Nunito;-inkscape-font-specification:'Nunito Light';fill:#3ccfff;fill-opacity:1;stroke-width:0;stroke-miterlimit:4;stroke-dasharray:none"
       y="43.277866"
       x="55.271782"
       id="tspan837"
       sodipodi:role="line">LetMe</tspan></text>
  <g
     style="stroke-width:0;stroke-miterlimit:4.69048;stroke-dasharray:none"
     transform="matrix(1.0231609,0,0,1.0231836,-0.50713123,-0.50714249)"
     id="g873">
    <path
       style="fill:#3ccfff;fill-opacity:1;stroke:#3ecdfe;stroke-width:0;stroke-miterlimit:4.69048;stroke-dasharray:none;stroke-opacity:1"
       d="m 55.574777,5.4018992 c 0,-0.8329658 -0.324344,-1.6160161 -0.913326,-2.2048905 L 53.436585,1.9719261 C 52.847603,1.382944 52.064444,1.0586005 51.231478,1.0586005 c -0.832965,0 -1.616016,0.3243435 -2.205105,0.9133256 L 43.254564,7.7437348 V 1.592826 c 0,-0.60587154 -0.491302,-1.09717399 -1.097174,-1.09717399 H 1.592826 C 0.98684686,0.49554443 0.49565199,0.98695446 0.49565199,1.592826 v 40.564349 c 0,0.605872 0.49119487,1.097174 1.09717401,1.097174 h 40.564456 c 0.605872,0 1.097175,-0.491302 1.097175,-1.097174 L 43.254027,19.014646 54.661451,7.6071124 C 55.250433,7.0181304 55.574777,6.234865 55.574777,5.4018992 Z M 41.060108,41.059893 H 2.6899999 V 2.6901076 H 41.060001 V 9.9381904 L 20.972541,30.025651 c -0.120486,0.120486 -0.211174,0.267436 -0.26507,0.428908 l -2.041804,6.125306 c -0.131458,0.394268 -0.02883,0.828986 0.265069,1.122777 0.209129,0.209129 0.489581,0.321331 0.776058,0.321331 0.116075,0 0.233119,-0.0184 0.346827,-0.05627 l 6.125305,-2.041697 c 0.161581,-0.0539 0.308422,-0.144583 0.428908,-0.265069 L 41.060108,21.208671 Z M 25.239137,33.926165 21.441252,35.192019 22.707213,31.394134 46.00433,8.0970164 48.536254,10.62894 Z M 53.109767,6.0553196 50.087939,9.0772547 48.821977,7.8112929 47.556123,6.5453312 50.578059,3.5233961 c 0.174596,-0.1745968 0.406531,-0.2706627 0.653419,-0.2706627 0.246889,0 0.478824,0.096066 0.653421,0.2705552 l 1.224975,1.2250826 c 0,1.076e-4 0,1.076e-4 1.08e-4,1.076e-4 0.174489,0.1745968 0.270555,0.406532 0.270555,0.6533128 0,0.246996 -0.09618,0.4790387 -0.27077,0.653528 z"
       id="path2-3" />
    <g
       style="fill:#3ccfff;fill-opacity:1;stroke:#3ecdfe;stroke-width:0;stroke-miterlimit:4.69048;stroke-dasharray:none;stroke-opacity:1"
       transform="matrix(0.12830293,0,0,0.10911745,-5.6925613,-4.3918398)"
       id="g12">
      <g
         style="fill:#3ccfff;fill-opacity:1;stroke:#3ecdfe;stroke-width:0;stroke-miterlimit:4.69048;stroke-dasharray:none;stroke-opacity:1"
         id="g10">
        <path
           style="fill:#3ccfff;fill-opacity:1;stroke:#3ecdfe;stroke-width:0;stroke-miterlimit:4.69048;stroke-dasharray:none;stroke-opacity:1"
           d="m 318.125,121.009 h -9.724 c -5.632,0 -10.199,4.567 -10.199,10.199 0,5.632 4.566,10.199 10.199,10.199 h 9.724 c 5.632,0 10.199,-4.567 10.199,-10.199 10e-4,-5.631 -4.567,-10.199 -10.199,-10.199 z"
           id="path8" />
      </g>
    </g>
    <g
       style="fill:#3ccfff;fill-opacity:1;stroke:#3ecdfe;stroke-width:0;stroke-miterlimit:4.69048;stroke-dasharray:none;stroke-opacity:1"
       transform="matrix(0.11007065,0,0,0.11007065,-1.7118921e-7,-4.5070395)"
       id="g18">
      <g
         style="fill:#3ccfff;fill-opacity:1;stroke:#3ecdfe;stroke-width:0;stroke-miterlimit:4.69048;stroke-dasharray:none;stroke-opacity:1"
         id="g16">
        <path
           style="fill:#3ccfff;fill-opacity:1;stroke:#3ecdfe;stroke-width:0;stroke-miterlimit:4.69048;stroke-dasharray:none;stroke-opacity:1"
           d="M 264.103,121.009 H 78.267 c -5.633,0 -10.199,4.567 -10.199,10.199 0,5.632 4.566,10.199 10.199,10.199 h 185.837 c 5.632,0 10.199,-4.567 10.199,-10.199 -10e-4,-5.631 -4.568,-10.199 -10.2,-10.199 z"
           id="path14-2" />
      </g>
    </g>
    <g
       style="fill:#3ccfff;fill-opacity:1;stroke:#3ecdfe;stroke-width:0;stroke-miterlimit:4.69048;stroke-dasharray:none;stroke-opacity:1"
       transform="matrix(0.10434364,0,0,0.11022898,0.38823313,-4.2014661)"
       id="g24">
      <g
         style="fill:#3ccfff;fill-opacity:1;stroke:#3ecdfe;stroke-width:0;stroke-miterlimit:4.69048;stroke-dasharray:none;stroke-opacity:1"
         id="g22">
        <path
           style="fill:#3ccfff;fill-opacity:1;stroke:#3ecdfe;stroke-width:0;stroke-miterlimit:4.69048;stroke-dasharray:none;stroke-opacity:1"
           d="M 254.379,180.434 H 78.267 c -5.633,0 -10.199,4.567 -10.199,10.199 0,5.632 4.566,10.199 10.199,10.199 H 254.38 c 5.632,0 10.199,-4.567 10.199,-10.199 0,-5.632 -4.568,-10.199 -10.2,-10.199 z"
           id="path20" />
      </g>
    </g>
    <g
       style="fill:#3ccfff;fill-opacity:1;stroke:#3ecdfe;stroke-width:0;stroke-miterlimit:4.69048;stroke-dasharray:none;stroke-opacity:1"
       transform="matrix(0.11007065,0,0,0.11007065,-1.7118921e-7,-3.8389363)"
       id="g30">
      <g
         style="fill:#3ccfff;fill-opacity:1;stroke:#3ecdfe;stroke-width:0;stroke-miterlimit:4.69048;stroke-dasharray:none;stroke-opacity:1"
         id="g28">
        <path
           style="fill:#3ccfff;fill-opacity:1;stroke:#3ecdfe;stroke-width:0;stroke-miterlimit:4.69048;stroke-dasharray:none;stroke-opacity:1"
           d="M 190.633,239.859 H 78.267 c -5.633,0 -10.199,4.567 -10.199,10.199 0,5.632 4.566,10.199 10.199,10.199 h 112.367 c 5.633,0 10.199,-4.567 10.199,-10.199 0,-5.632 -4.567,-10.199 -10.2,-10.199 z"
           id="path26" />
      </g>
    </g>
    <g
       style="fill:#3ccfff;fill-opacity:1;stroke:#3ecdfe;stroke-width:0;stroke-miterlimit:4.69048;stroke-dasharray:none;stroke-opacity:1"
       transform="matrix(0.11007065,0,0,0.11007065,-1.7118921e-7,-3.3857883)"
       id="g36">
      <g
         style="fill:#3ccfff;fill-opacity:1;stroke:#3ecdfe;stroke-width:0;stroke-miterlimit:4.69048;stroke-dasharray:none;stroke-opacity:1"
         id="g34">
        <path
           style="fill:#3ccfff;fill-opacity:1;stroke:#3ecdfe;stroke-width:0;stroke-miterlimit:4.69048;stroke-dasharray:none;stroke-opacity:1"
           d="M 142.014,298.202 H 78.267 c -5.633,0 -10.199,4.567 -10.199,10.199 0,5.632 4.566,10.199 10.199,10.199 h 63.746 c 5.633,0 10.199,-4.567 10.199,-10.199 0,-5.632 -4.565,-10.199 -10.198,-10.199 z"
           id="path32" />
      </g>
    </g>
  </g>
</svg>
