<?xml version="1.0" encoding="UTF-8" standalone="no"?>
<svg
   xmlns:dc="http://purl.org/dc/elements/1.1/"
   xmlns:cc="http://creativecommons.org/ns#"
   xmlns:rdf="http://www.w3.org/1999/02/22-rdf-syntax-ns#"
   xmlns:svg="http://www.w3.org/2000/svg"
   xmlns="http://www.w3.org/2000/svg"
   xmlns:sodipodi="http://sodipodi.sourceforge.net/DTD/sodipodi-0.dtd"
   xmlns:inkscape="http://www.inkscape.org/namespaces/inkscape"
   inkscape:version="1.0 (4035a4fb49, 2020-05-01)"
   sodipodi:docname="toBottom.svg"
   xml:space="preserve"
   width="266"
   viewBox="0 0 266 266"
   version="1.1"
   id="Layer_1"
   height="266"
   enable-background="new 0 0 256 256"><metadata
     id="metadata9"><rdf:RDF><cc:Work
         rdf:about=""><dc:format>image/svg+xml</dc:format><dc:type
           rdf:resource="http://purl.org/dc/dcmitype/StillImage" /><dc:title></dc:title></cc:Work></rdf:RDF></metadata><defs
     id="defs7" /><sodipodi:namedview
     fit-margin-bottom="0"
     fit-margin-right="0"
     fit-margin-left="0"
     fit-margin-top="0"
     inkscape:current-layer="Layer_1"
     inkscape:window-maximized="1"
     inkscape:window-y="-8"
     inkscape:window-x="-8"
     inkscape:cy="158.37835"
     inkscape:cx="102.18641"
     inkscape:zoom="2.3478155"
     showgrid="false"
     id="namedview5"
     inkscape:window-height="1017"
     inkscape:window-width="1920"
     inkscape:pageshadow="2"
     inkscape:pageopacity="0"
     guidetolerance="10"
     gridtolerance="10"
     objecttolerance="10"
     borderopacity="1"
     bordercolor="#666666"
     pagecolor="#ffffff"
     inkscape:document-rotation="0" /><path
     style="fill:#262626;fill-opacity:1;stroke:#262626;stroke-width:10;stroke-miterlimit:4;stroke-dasharray:none;stroke-opacity:1"
     id="path2"
     d="m 76.254,104.627 c 1.639,0 3.275,0.625 4.525,1.875 l 52.221,52.22 52.223,-52.22 c 2.497,-2.5 6.55,-2.5 9.05,0 2.5,2.498 2.5,6.551 0,9.05 l -56.749,56.747 c -1.2,1.2 -2.828,1.875 -4.525,1.875 v 0 c -1.697,0 -3.325,-0.675 -4.525,-1.875 L 71.729,115.552 c -2.5,-2.499 -2.5,-6.552 0,-9.05 1.25,-1.25 2.888,-1.875 4.525,-1.875 z M 5,133 c 0,70.58 57.42,128 128,128 70.58,0 128,-57.42 128,-128 C 261,62.42 203.58,5 133,5 62.42,5 5,62.42 5,133 Z m 12.8,0 C 17.8,69.479 69.479,17.8 133,17.8 196.522,17.8 248.2,69.479 248.2,133 248.2,196.522 196.522,248.2 133,248.2 69.479,248.2 17.8,196.522 17.8,133 Z" /></svg>
