<?xml version="1.0" encoding="UTF-8" standalone="no"?>
<svg
   xmlns:dc="http://purl.org/dc/elements/1.1/"
   xmlns:cc="http://creativecommons.org/ns#"
   xmlns:rdf="http://www.w3.org/1999/02/22-rdf-syntax-ns#"
   xmlns:svg="http://www.w3.org/2000/svg"
   xmlns="http://www.w3.org/2000/svg"
   xmlns:sodipodi="http://sodipodi.sourceforge.net/DTD/sodipodi-0.dtd"
   xmlns:inkscape="http://www.inkscape.org/namespaces/inkscape"
   enable-background="new 0 0 256 256"
   height="266"
   id="Layer_1"
   version="1.1"
   viewBox="0 0 266 266"
   width="266"
   xml:space="preserve"
   sodipodi:docname="toTop.svg"
   inkscape:version="1.0 (4035a4fb49, 2020-05-01)"><metadata
     id="metadata9"><rdf:RDF><cc:Work
         rdf:about=""><dc:format>image/svg+xml</dc:format><dc:type
           rdf:resource="http://purl.org/dc/dcmitype/StillImage" /><dc:title></dc:title></cc:Work></rdf:RDF></metadata><defs
     id="defs7" /><sodipodi:namedview
     fit-margin-bottom="0"
     fit-margin-right="0"
     fit-margin-left="0"
     fit-margin-top="0"
     inkscape:document-rotation="0"
     pagecolor="#ffffff"
     bordercolor="#666666"
     borderopacity="1"
     objecttolerance="10"
     gridtolerance="10"
     guidetolerance="10"
     inkscape:pageopacity="0"
     inkscape:pageshadow="2"
     inkscape:window-width="1920"
     inkscape:window-height="1017"
     id="namedview5"
     showgrid="false"
     inkscape:zoom="3.3203125"
     inkscape:cx="133"
     inkscape:cy="133"
     inkscape:window-x="-8"
     inkscape:window-y="-8"
     inkscape:window-maximized="1"
     inkscape:current-layer="Layer_1" /><path
     d="m 189.746,161.373 c -1.639,0 -3.275,-0.625 -4.525,-1.875 L 133,107.278 80.777,159.498 c -2.497,2.5 -6.55,2.5 -9.05,0 -2.5,-2.498 -2.5,-6.551 0,-9.05 l 56.749,-56.747 c 1.2,-1.2 2.828,-1.875 4.525,-1.875 v 0 c 1.697,0 3.325,0.675 4.525,1.875 l 56.745,56.747 c 2.5,2.499 2.5,6.552 0,9.05 -1.25,1.25 -2.888,1.875 -4.525,1.875 z M 261,133 C 261,62.42 203.58,5 133,5 62.42,5 5,62.42 5,133 c 0,70.58 57.42,128 128,128 70.58,0 128,-57.42 128,-128 z m -12.8,0 C 248.2,196.521 196.521,248.2 133,248.2 69.478,248.2 17.8,196.521 17.8,133 17.8,69.478 69.478,17.8 133,17.8 c 63.521,0 115.2,51.678 115.2,115.2 z"
     id="path2"
     style="fill:#262626;fill-opacity:1;stroke:#262626;stroke-width:10;stroke-miterlimit:4;stroke-dasharray:none;stroke-opacity:1" /></svg>
