<?xml version="1.0" encoding="UTF-8" standalone="no"?>
<svg
   xmlns:dc="http://purl.org/dc/elements/1.1/"
   xmlns:cc="http://creativecommons.org/ns#"
   xmlns:rdf="http://www.w3.org/1999/02/22-rdf-syntax-ns#"
   xmlns:svg="http://www.w3.org/2000/svg"
   xmlns="http://www.w3.org/2000/svg"
   xmlns:sodipodi="http://sodipodi.sourceforge.net/DTD/sodipodi-0.dtd"
   xmlns:inkscape="http://www.inkscape.org/namespaces/inkscape"
   inkscape:version="1.0 (4035a4fb49, 2020-05-01)"
   height="27"
   width="27"
   sodipodi:docname="history-solid.svg"
   xml:space="preserve"
   viewBox="0 0 27.000002 27.000002"
   y="0px"
   x="0px"
   id="Layer_1"
   version="1.1"><metadata
     id="metadata11"><rdf:RDF><cc:Work
         rdf:about=""><dc:format>image/svg+xml</dc:format><dc:type
           rdf:resource="http://purl.org/dc/dcmitype/StillImage" /><dc:title /></cc:Work></rdf:RDF></metadata><defs
     id="defs9" /><sodipodi:namedview
     inkscape:current-layer="Layer_1"
     inkscape:window-maximized="1"
     inkscape:window-y="-8"
     inkscape:window-x="-8"
     inkscape:cy="19.916903"
     inkscape:cx="-6.2306328"
     inkscape:zoom="9.7825645"
     units="px"
     showgrid="false"
     id="namedview7"
     inkscape:window-height="1017"
     inkscape:window-width="1920"
     inkscape:pageshadow="2"
     inkscape:pageopacity="0"
     guidetolerance="10"
     gridtolerance="10"
     objecttolerance="10"
     borderopacity="1"
     bordercolor="#666666"
     pagecolor="#ffffff"
     inkscape:document-rotation="0" /><path
     sodipodi:nodetypes="csscccsazascccccccsscssssscccccccccccccccsccscccccccccccsccsccccscsscscccccc"
     d="M 18.080446,8.0450649 C 17.88394,8.1043899 17.680333,8.0824179 17.50987,8.0011209 17.339408,7.9198239 17.204459,7.779203 17.140535,7.5968348 c -0.06392,-0.1823681 -0.04025,-0.3713279 0.04735,-0.5273296 0.0876,-0.1581989 0.239121,-0.2834397 0.435626,-0.3427642 l 5.165955,-1.5358475 -2.343857,-4.17689 c -0.09488,-0.16908344 -0.10555,-0.36126168 -0.04972,-0.52952677 0.05748,-0.17325409 0.199576,-0.32384779 0.366967,-0.40648324 0.167391,-0.08263545 0.387736,-0.10072432 0.570575,-0.04614134 0.177212,0.05290305 0.343044,0.17152149 0.437994,0.34056704 l 2.755807,4.90636261 0.02604,0.052733 c 0.0071,0.015381 0.01421,0.032958 0.02131,0.057127 0.06392,0.1823681 0.04025,0.3713279 -0.04735,0.5273296 -0.0876,0.1581989 -0.239121,0.2834397 -0.435626,0.3427642 z m -6.844535,2.9025101 c 0,-0.322989 0.281736,-0.586654 0.632131,-0.586654 0.348027,0 0.632131,0.261467 0.632131,0.586654 v 5.583102 h 4.294703 c 0.348027,0 0.632131,0.261468 0.632131,0.586654 0,0.32299 -0.281737,0.586655 -0.632131,0.586655 h -4.929202 c -0.348027,0 -0.632131,-0.261468 -0.632131,-0.586655 v -6.169756 z m 14.567533,5.422048 c 0.03788,-0.18896 0.304122,-1.001924 0.462747,-1.100798 0.158625,-0.101071 -0.108573,-0.235148 0.09267,-0.199993 0.203607,0.03515 0.484644,-1.637135 0.591183,-1.489922 0.108906,0.147213 0.05622,2.640296 0.04996,2.894823 -0.07103,0.344961 -0.169159,0.924841 -0.27333,1.267605 -0.101804,0.33837 -0.22018,0.67674 -0.35513,1.012912 -0.132581,0.329581 -0.279368,0.656965 -0.442728,0.979955 -0.160992,0.318595 -0.338557,0.634992 -0.532695,0.946996 l -0.0047,0.0066 c -0.92097,1.47872 -2.116573,2.720142 -3.492109,3.700096 -1.42999,1.019504 -3.054117,1.753371 -4.76821,2.179629 -1.704623,0.424061 -3.499212,0.54271 -5.277228,0.327384 C 10.139744,26.688364 8.4422232,26.174217 6.8512418,25.33049 6.8180958,25.31291 6.7920538,25.29973 6.7612758,25.28215 5.1773967,24.425241 3.8492113,23.317849 2.8003947,22.045666 1.71133,20.722948 0.9229419,19.220058 0.46600824,17.638069 0.00907459,16.056081 -0.11877214,14.390598 0.11324599,12.740496 0.33579399,11.151915 0.88979645,9.576518 1.7989287,8.0999951 l 0.026043,-0.043944 c 0.00947,-0.01538 0.01894,-0.028564 0.02841,-0.041747 C 2.7767194,6.5443727 3.9699555,5.3117398 5.3407564,4.3383772 6.7660106,3.3276621 8.3854024,2.5959923 10.090025,2.1719314 11.801751,1.7456733 13.60581,1.6292213 15.393297,1.8467448 c 1.721196,0.2109318 3.425819,0.7316698 5.021535,1.5863832 l 0.0071,0.00439 c 0.175197,0.096677 0.293574,0.2482844 0.340924,0.4152721 0.04972,0.1713821 0.02841,0.3603419 -0.07339,0.5251324 -0.101804,0.1669877 -0.267531,0.276848 -0.452199,0.3229894 -0.184667,0.046141 -0.388275,0.026366 -0.56584,-0.068113 C 18.250908,3.8725694 16.73332,3.4089587 15.201527,3.2221962 13.610545,3.028842 12.005359,3.1321107 10.478301,3.5122275 8.9512426,3.8923442 7.5070481,4.5471118 6.233316,5.452361 5.009302,6.324652 3.9439126,7.429847 3.1247466,8.748171 l -0.00237,0.0022 c -0.8191636,1.318321 -1.3187128,2.726731 -1.519953,4.146126 -0.2083429,1.476523 -0.097069,2.966229 0.3125142,4.383428 0.409583,1.417198 1.1151075,2.757494 2.0905306,3.939591 0.9399102,1.135956 2.1307787,2.124699 3.5512979,2.88713 v 0 c 1.4205191,0.760233 2.9381067,1.223844 4.4699007,1.410607 1.590981,0.193354 3.196168,0.09008 4.723226,-0.290032 1.527058,-0.380116 2.97362,-1.034884 4.247352,-1.940133 1.226381,-0.872291 2.289403,-1.977486 3.108569,-3.293613 0.170463,-0.274651 0.383299,-0.576162 0.530086,-0.861798 0.146787,-0.290032 0.351651,-0.564189 0.46766,-0.856418 0.156711,-0.319981 0.288629,-0.569887 0.378595,-0.870904 0.115526,-0.282053 0.257365,-0.724926 0.321289,-1.034732 z"
     id="path2"
     style="fill:#262626;fill-opacity:1;stroke:none;stroke-width:1;stroke-opacity:1" /><ellipse
     ry="12.14076"
     rx="13"
     cy="14.270123"
     cx="13.5"
     id="path897"
     style="fill:#262626;fill-opacity:1;stroke:#262626;stroke-width:0.999995;stroke-linecap:round;stroke-opacity:1;paint-order:markers fill stroke" /><path
     style="fill:#ffffff;fill-opacity:1;stroke:none;stroke-width:1;stroke-opacity:1"
     id="path2-5"
     d="m 11.235911,10.947575 c 0,-0.322989 0.281736,-0.586654 0.632131,-0.586654 0.348027,0 0.632131,0.261467 0.632131,0.586654 v 5.583102 h 4.294703 c 0.348027,0 0.632131,0.261468 0.632131,0.586654 0,0.32299 -0.281737,0.586655 -0.632131,0.586655 h -4.929202 c -0.348027,0 -0.632131,-0.261468 -0.632131,-0.586655 v -6.169756 z"
     sodipodi:nodetypes="csscssssscc" /><path
     sodipodi:nodetypes="cccssccc"
     d="m 24.092786,6.3887526 c -0.0876,0.1581989 0.195325,-0.1893402 -0.0012,-0.1300157 l -6.01116,1.786328 C 17.88394,8.1043899 17.680333,8.0824179 17.50987,8.0011209 17.339408,7.9198239 17.204459,7.779203 17.140535,7.5968348 c -0.06392,-0.1823681 -0.04025,-0.3713279 0.04735,-0.5273296 0.0876,-0.1581989 0.239121,-0.2834397 0.435626,-0.3427642 l 5.165955,-1.5358475"
     id="path2-5-1"
     style="fill:#ffffff;fill-opacity:1;stroke:none;stroke-width:1;stroke-opacity:1" /></svg>
